<svg width="247" height="103" viewBox="0 0 247 103" fill="none" xmlns="http://www.w3.org/2000/svg">
<path d="M58.2322 46.821L50.99 66.0142H48.0986L40.8564 46.821H43.5275L49.5581 63.3706L55.5886 46.821H58.2322ZM62.2741 48.4732C61.7968 48.4732 61.3929 48.308 61.0625 47.9775C60.732 47.6471 60.5668 47.2432 60.5668 46.7659C60.5668 46.2886 60.732 45.8847 61.0625 45.5543C61.3929 45.2238 61.7968 45.0586 62.2741 45.0586C62.733 45.0586 63.1185 45.2238 63.4306 45.5543C63.7611 45.8847 63.9263 46.2886 63.9263 46.7659C63.9263 47.2432 63.7611 47.6471 63.4306 47.9775C63.1185 48.308 62.733 48.4732 62.2741 48.4732ZM63.4857 50.924V66.0142H60.9798V50.924H63.4857ZM81.5249 57.8908C81.5249 58.3681 81.4974 58.8729 81.4423 59.4053H69.3812C69.473 60.8923 69.9778 62.058 70.8957 62.9025C71.832 63.7286 72.961 64.1417 74.2827 64.1417C75.3659 64.1417 76.2654 63.8938 76.9813 63.3982C77.7157 62.8841 78.2297 62.2049 78.5234 61.3604H81.222C80.8182 62.8107 80.0104 63.9948 78.7988 64.9127C77.5872 65.8122 76.0818 66.262 74.2827 66.262C72.8508 66.262 71.5658 65.9407 70.4276 65.2982C69.3077 64.6557 68.4266 63.747 67.784 62.5721C67.1415 61.3788 66.8202 60.0019 66.8202 58.4415C66.8202 56.8811 67.1323 55.5134 67.7565 54.3385C68.3807 53.1636 69.2527 52.2641 70.3725 51.6399C71.5107 50.9974 72.8141 50.6761 74.2827 50.6761C75.7147 50.6761 76.9813 50.9882 78.0828 51.6124C79.1843 52.2365 80.0288 53.0994 80.6162 54.2008C81.222 55.284 81.5249 56.5139 81.5249 57.8908ZM78.9365 57.3676C78.9365 56.413 78.7254 55.596 78.3031 54.9168C77.8809 54.2192 77.3026 53.696 76.5683 53.3472C75.8523 52.98 75.0538 52.7965 74.1726 52.7965C72.9059 52.7965 71.8228 53.2003 70.9232 54.0081C70.0421 54.8158 69.5372 55.9357 69.4087 57.3676H78.9365ZM104.934 50.924L100.226 66.0142H97.6372L94.0024 54.0356L90.3675 66.0142H87.779L83.0427 50.924H85.6036L89.0733 63.5909L92.8183 50.924H95.3792L99.0416 63.6185L102.456 50.924H104.934ZM127.595 52.4385C127.595 54.0356 127.044 55.3666 125.943 56.4313C124.86 57.4777 123.198 58.0009 120.959 58.0009H117.269V66.0142H114.763V46.821H120.959C123.125 46.821 124.768 47.3442 125.888 48.3906C127.026 49.437 127.595 50.7863 127.595 52.4385ZM120.959 55.9357C122.354 55.9357 123.382 55.6328 124.043 55.0269C124.704 54.4211 125.034 53.5583 125.034 52.4385C125.034 50.0703 123.676 48.8862 120.959 48.8862H117.269V55.9357H120.959ZM133.215 53.3747C133.656 52.5119 134.28 51.8419 135.088 51.3645C135.914 50.8872 136.914 50.6486 138.089 50.6486V53.2371H137.428C134.62 53.2371 133.215 54.7608 133.215 57.8082V66.0142H130.709V50.924H133.215V53.3747ZM147.563 66.262C146.15 66.262 144.865 65.9407 143.708 65.2982C142.57 64.6557 141.67 63.747 141.01 62.5721C140.367 61.3788 140.046 60.0019 140.046 58.4415C140.046 56.8995 140.376 55.541 141.037 54.3661C141.716 53.1728 142.634 52.2641 143.791 51.6399C144.947 50.9974 146.242 50.6761 147.673 50.6761C149.105 50.6761 150.4 50.9974 151.556 51.6399C152.713 52.2641 153.621 53.1636 154.282 54.3385C154.962 55.5134 155.301 56.8811 155.301 58.4415C155.301 60.0019 154.952 61.3788 154.255 62.5721C153.575 63.747 152.648 64.6557 151.474 65.2982C150.299 65.9407 148.995 66.262 147.563 66.262ZM147.563 64.059C148.463 64.059 149.307 63.8479 150.097 63.4257C150.886 63.0035 151.519 62.3701 151.997 61.5257C152.492 60.6812 152.74 59.6531 152.74 58.4415C152.74 57.2299 152.502 56.2019 152.024 55.3574C151.547 54.5129 150.923 53.8888 150.152 53.4849C149.381 53.0627 148.545 52.8515 147.646 52.8515C146.728 52.8515 145.884 53.0627 145.113 53.4849C144.36 53.8888 143.754 54.5129 143.295 55.3574C142.836 56.2019 142.607 57.2299 142.607 58.4415C142.607 59.6715 142.827 60.7087 143.268 61.5532C143.726 62.3977 144.332 63.031 145.085 63.4532C145.838 63.8571 146.664 64.059 147.563 64.059ZM159.945 48.4732C159.468 48.4732 159.064 48.308 158.734 47.9775C158.421 47.6471 158.265 47.2432 158.265 46.7659C158.265 46.2886 158.421 45.8847 158.734 45.5543C159.064 45.2238 159.468 45.0586 159.945 45.0586C160.423 45.0586 160.817 45.2238 161.129 45.5543C161.46 45.8847 161.625 46.2886 161.625 46.7659C161.625 47.2432 161.46 47.6471 161.129 47.9775C160.817 48.308 160.423 48.4732 159.945 48.4732ZM161.184 69.291C161.184 70.6312 160.845 71.6133 160.165 72.2375C159.486 72.8617 158.495 73.1737 157.192 73.1737H155.732V71.0534H156.778C157.476 71.0534 157.963 70.9157 158.238 70.6404C158.532 70.365 158.679 69.8969 158.679 69.236V50.924H161.184V69.291ZM179.195 57.8908C179.195 58.3681 179.167 58.8729 179.112 59.4053H167.051C167.143 60.8923 167.648 62.058 168.566 62.9025C169.502 63.7286 170.631 64.1417 171.953 64.1417C173.036 64.1417 173.935 63.8938 174.651 63.3982C175.385 62.8841 175.9 62.2049 176.193 61.3604H178.892C178.488 62.8107 177.68 63.9948 176.469 64.9127C175.257 65.8122 173.752 66.262 171.953 66.262C170.521 66.262 169.236 65.9407 168.097 65.2982C166.978 64.6557 166.096 63.747 165.454 62.5721C164.811 61.3788 164.49 60.0019 164.49 58.4415C164.49 56.8811 164.802 55.5134 165.426 54.3385C166.05 53.1636 166.922 52.2641 168.042 51.6399C169.181 50.9974 170.484 50.6761 171.953 50.6761C173.384 50.6761 174.651 50.9882 175.753 51.6124C176.854 52.2365 177.699 53.0994 178.286 54.2008C178.892 55.284 179.195 56.5139 179.195 57.8908ZM176.606 57.3676C176.606 56.413 176.395 55.596 175.973 54.9168C175.551 54.2192 174.972 53.696 174.238 53.3472C173.522 52.98 172.724 52.7965 171.842 52.7965C170.576 52.7965 169.493 53.2003 168.593 54.0081C167.712 54.8158 167.207 55.9357 167.079 57.3676H176.606ZM181.566 58.4415C181.566 56.8811 181.878 55.5226 182.502 54.3661C183.127 53.1912 183.989 52.2824 185.091 51.6399C186.211 50.9974 187.487 50.6761 188.918 50.6761C190.773 50.6761 192.296 51.1259 193.49 52.0254C194.701 52.925 195.5 54.1733 195.885 55.7704H193.187C192.93 54.8525 192.425 54.1274 191.672 53.595C190.938 53.0627 190.02 52.7965 188.918 52.7965C187.487 52.7965 186.33 53.2921 185.449 54.2835C184.568 55.2564 184.127 56.6424 184.127 58.4415C184.127 60.259 184.568 61.6633 185.449 62.6547C186.33 63.646 187.487 64.1417 188.918 64.1417C190.02 64.1417 190.938 63.8846 191.672 63.3706C192.406 62.8566 192.911 62.1223 193.187 61.1677H195.885C195.481 62.7097 194.674 63.9489 193.462 64.8851C192.25 65.803 190.736 66.262 188.918 66.262C187.487 66.262 186.211 65.9407 185.091 65.2982C183.989 64.6557 183.127 63.747 182.502 62.5721C181.878 61.3971 181.566 60.0203 181.566 58.4415ZM202.285 52.9892V61.8836C202.285 62.6179 202.442 63.1411 202.754 63.4532C203.066 63.747 203.607 63.8938 204.378 63.8938H206.223V66.0142H203.965C202.57 66.0142 201.524 65.6929 200.826 65.0504C200.128 64.4078 199.78 63.3523 199.78 61.8836V52.9892H197.825V50.924H199.78V47.1239H202.285V50.924H206.223V52.9892H202.285Z" fill="white"/>
<path d="M1.437 70.5541C1.66648 71.2493 2.41603 71.6268 3.11117 71.3973C3.80631 71.1678 4.18379 70.4183 3.95431 69.7231L1.437 70.5541ZM134.801 2.09746L134.765 3.42245L134.801 2.09746ZM226.7 93.1133L226.116 91.9233L226.7 93.1133ZM91.1631 80.3442C90.4554 80.5314 90.0334 81.2569 90.2206 81.9646L93.2712 93.4972C93.4584 94.2049 94.1839 94.6268 94.8915 94.4396C95.5992 94.2524 96.0212 93.527 95.834 92.8193L93.1224 82.5681L103.374 79.8565C104.081 79.6693 104.503 78.9438 104.316 78.2361C104.129 77.5284 103.403 77.1065 102.696 77.2937L91.1631 80.3442ZM3.95431 69.7231C2.43518 65.1214 3.62105 58.562 8.07219 51.1714C12.497 43.8246 20.0439 35.8491 30.8356 28.5483C52.4063 13.9553 86.8432 2.12849 134.765 3.42245L134.837 0.772474C86.4492 -0.534057 51.4477 11.4032 29.3502 26.3527C18.3077 33.8231 10.4631 42.0634 5.80131 49.8038C1.16589 57.5003 -0.429786 64.8994 1.437 70.5541L3.95431 69.7231ZM134.765 3.42245C182.072 4.69982 216.359 21.6141 232.989 40.8208C241.307 50.4278 245.12 60.4937 244.16 69.419C243.206 78.2806 237.51 86.3337 226.116 91.9233L227.284 94.3033C239.306 88.4055 245.724 79.6591 246.795 69.7027C247.86 59.8102 243.611 49.0397 234.993 39.0856C217.75 19.1704 182.67 2.06406 134.837 0.772474L134.765 3.42245ZM226.116 91.9233C214.907 97.4218 192.199 100.854 166.767 99.7228C141.377 98.5931 113.566 92.9253 92.1684 80.4799L90.8356 82.7714C112.737 95.5099 141.018 101.231 166.649 102.371C192.237 103.51 215.479 100.094 227.284 94.3033L226.116 91.9233Z" fill="#3CCD18"/>
</svg>
