<svg width="20" height="21" viewBox="0 0 20 21" fill="none" xmlns="http://www.w3.org/2000/svg">
<path opacity="0.4" d="M15.4701 15.83L15.8601 18.99C15.9601 19.82 15.0701 20.4 14.3601 19.97L10.1701 17.48C9.71009 17.48 9.2601 17.45 8.8201 17.39C9.5601 16.52 10.0001 15.42 10.0001 14.23C10.0001 11.39 7.54009 9.09003 4.50009 9.09003C3.34009 9.09003 2.2701 9.42 1.3801 10C1.3501 9.75 1.34009 9.49999 1.34009 9.23999C1.34009 4.68999 5.29009 1 10.1701 1C15.0501 1 19.0001 4.68999 19.0001 9.23999C19.0001 11.94 17.6101 14.33 15.4701 15.83Z" stroke="#292D32" stroke-width="1.5" stroke-linecap="round" stroke-linejoin="round"/>
</svg>
