<svg width="249" height="248" viewBox="0 0 249 248" fill="none" xmlns="http://www.w3.org/2000/svg">
<circle cx="123.864" cy="124.055" r="78.8787" fill="#11271F"/>
<path d="M78.5818 123.516C77.4772 123.516 76.5818 124.411 76.5818 125.516C76.5818 126.62 77.4772 127.516 78.5818 127.516V123.516ZM157.414 126.93C158.195 126.149 158.195 124.882 157.414 124.101L144.686 111.373C143.905 110.592 142.639 110.592 141.858 111.373C141.077 112.155 141.077 113.421 141.858 114.202L153.171 125.516L141.858 136.829C141.077 137.61 141.077 138.877 141.858 139.658C142.639 140.439 143.905 140.439 144.686 139.658L157.414 126.93ZM78.5818 127.516H156V123.516H78.5818V127.516Z" fill="#3CCD18"/>
<path d="M102.01 231.884C102.324 232.918 102.877 233.761 103.669 234.413C104.459 235.082 105.431 235.503 106.586 235.676C107.741 235.849 108.826 235.736 109.84 235.338C110.836 234.954 111.678 234.303 112.365 233.387C113.035 232.484 113.466 231.384 113.661 230.087C113.855 228.789 113.765 227.611 113.39 226.551C112.999 225.49 112.385 224.621 111.548 223.946C110.692 223.284 109.687 222.866 108.532 222.693C106.918 222.451 105.517 222.734 104.328 223.543C103.139 224.352 102.334 225.566 101.913 227.185L108.511 228.174L108.248 229.931L99.3477 228.597L99.5967 226.935C99.9272 225.593 100.542 224.407 101.44 223.377C102.337 222.363 103.428 221.612 104.714 221.126C105.998 220.655 107.368 220.528 108.824 220.747C110.359 220.977 111.706 221.542 112.865 222.444C114.022 223.362 114.876 224.517 115.427 225.91C115.963 227.301 116.11 228.803 115.868 230.417C115.626 232.031 115.045 233.425 114.125 234.597C113.187 235.783 112.032 236.638 110.659 237.16C109.284 237.698 107.829 237.852 106.295 237.622C104.538 237.359 103.053 236.691 101.838 235.619C100.608 234.545 99.8027 233.171 99.4228 231.496L102.01 231.884Z" fill="black"/>
<path d="M88.4005 231.266L90.2567 225.991L84.5064 223.968L85.1039 222.27L90.8542 224.293L92.7662 218.86L86.3367 216.597L86.9341 214.899L95.4239 217.887L89.8632 233.689L81.3735 230.701L81.971 229.003L88.4005 231.266Z" fill="black"/>
<path d="M63.5751 221.745L64.4279 220.187L68.4278 222.376L75.6075 209.261L77.5233 210.31L70.3435 223.425L74.3645 225.626L73.5117 227.184L63.5751 221.745Z" fill="black"/>
<path d="M55.0615 193.385C55.8458 194.162 56.4154 194.997 56.7702 195.889C57.1025 196.781 57.2027 197.646 57.0708 198.484C56.9277 199.333 56.5409 200.088 55.9104 200.747L54.2566 199.108C54.7516 198.495 54.9916 197.798 54.9766 197.018C54.939 196.237 54.5338 195.464 53.7609 194.698C53.0221 193.966 52.2622 193.574 51.4813 193.521C50.6778 193.468 49.9889 193.732 49.4146 194.311C48.9641 194.766 48.7232 195.259 48.6917 195.791C48.6602 196.323 48.7589 196.849 48.9876 197.368C49.2163 197.887 49.5644 198.548 50.032 199.349C50.6136 200.33 51.0417 201.16 51.3164 201.837C51.5797 202.504 51.6679 203.222 51.581 203.991C51.4715 204.761 51.0507 205.516 50.3187 206.254C49.6769 206.902 48.9434 207.313 48.1183 207.487C47.2932 207.66 46.45 207.591 45.5887 207.278C44.716 206.954 43.8932 206.409 43.1203 205.643C42.0064 204.54 41.373 203.36 41.2201 202.105C41.0558 200.839 41.3842 199.7 42.2054 198.689L43.9104 200.378C43.5168 200.889 43.3613 201.524 43.4441 202.281C43.5155 203.05 43.8979 203.778 44.5913 204.465C45.2391 205.107 45.9366 205.46 46.6836 205.525C47.4194 205.6 48.0856 205.337 48.6825 204.735C49.1104 204.303 49.3401 203.832 49.3717 203.323C49.3919 202.802 49.299 202.294 49.0931 201.797C48.8645 201.3 48.5163 200.64 48.0486 199.816C47.4783 198.823 47.0614 197.982 46.798 197.293C46.5233 196.616 46.435 195.886 46.5332 195.105C46.6201 194.336 47.0352 193.576 47.7784 192.825C48.3527 192.246 49.0467 191.852 49.8603 191.645C50.674 191.437 51.5396 191.473 52.4574 191.751C53.3751 192.03 54.2431 192.575 55.0615 193.385Z" fill="black"/>
<path d="M27.0711 185.576L28.518 184.546L31.1621 188.261L43.344 179.592L44.6104 181.371L32.4284 190.041L35.0864 193.775L33.6394 194.805L27.0711 185.576Z" fill="black"/>
<path d="M30.347 163.659L33.4412 170.267L37.38 169.906L38.3572 171.993L20.73 173.569L19.6613 171.287L32.1688 158.778L33.1459 160.865L30.347 163.659ZM29.0032 164.978L22.635 171.299L31.5682 170.455L29.0032 164.978Z" fill="black"/>
<path d="M28.2318 144.536L22.5811 150.079L23.2301 152.638L29.8602 150.956L30.3971 153.073L14.1824 157.186L12.8549 151.951C12.5442 150.726 12.492 149.642 12.6984 148.698C12.9008 147.739 13.3056 146.959 13.9128 146.36C14.52 145.76 15.2812 145.344 16.1962 145.112C17.3128 144.829 18.3803 144.905 19.3984 145.34C20.4127 145.759 21.2226 146.577 21.8283 147.794L27.5887 142L28.2318 144.536ZM21.5318 153.069L20.7413 149.951C20.4502 148.804 19.9527 148.014 19.2489 147.581C18.5295 147.153 17.6968 147.059 16.7508 147.299C15.7892 147.543 15.1175 148.018 14.7358 148.726C14.35 149.418 14.3047 150.346 14.5997 151.509L15.3902 154.626L21.5318 153.069Z" fill="black"/>
<path d="M9.29952 126.768L11.0703 126.631L11.4203 131.178L26.3282 130.03L26.4958 132.208L11.588 133.355L11.9398 137.926L10.1691 138.062L9.29952 126.768Z" fill="black"/>
<path d="M11.4665 116.397L17.038 116.875L17.5596 110.801L19.353 110.955L18.8314 117.029L24.5703 117.522L25.1535 110.731L26.9469 110.885L26.1768 119.852L9.48622 118.419L10.2563 109.452L12.0497 109.606L11.4665 116.397Z" fill="black"/>
<path d="M13.2957 94.6729C13.7755 92.9131 14.5221 91.4832 15.5352 90.383C16.5372 89.2631 17.7405 88.5299 19.1452 88.1832C20.5541 87.8211 22.0843 87.8653 23.736 88.3157C25.3877 88.7662 26.7286 89.505 27.7586 90.5322C28.7774 91.5397 29.4342 92.7802 29.7289 94.2537C30.0124 95.7075 29.9142 97.3142 29.4343 99.074L28.0641 104.098L11.9254 99.6974L13.2957 94.6729ZM27.6977 98.6004C28.266 96.5165 28.1516 94.7771 27.3545 93.3823C26.542 91.9832 25.1401 91.0121 23.1488 90.4691C21.1421 89.9219 19.4237 90.0503 17.9938 90.8544C16.5681 91.6431 15.5732 93.0717 15.0091 95.1401L14.2135 98.0576L26.9021 101.518L27.6977 98.6004Z" fill="black"/>
<path d="M34.5407 84.9052C34.3729 85.2859 34.0991 85.5499 33.7194 85.6972C33.3397 85.8446 32.9596 85.8344 32.5789 85.6666C32.1983 85.4988 31.9342 85.225 31.7869 84.8453C31.6395 84.4656 31.6497 84.0854 31.8175 83.7048C31.9789 83.3388 32.2462 83.0894 32.6194 82.9567C32.9991 82.8093 33.3793 82.8195 33.76 82.9873C34.1406 83.1552 34.4046 83.4289 34.552 83.8086C34.7058 84.1737 34.702 84.5392 34.5407 84.9052Z" fill="black"/>
<path d="M42.5061 50.4481C41.4558 50.1936 40.4485 50.2417 39.4841 50.5925C38.5072 50.9332 37.6509 51.5571 36.915 52.4642C36.1792 53.3713 35.7252 54.3628 35.553 55.4386C35.3784 56.4919 35.5112 57.5473 35.9513 58.6048C36.3891 59.6398 37.1174 60.5706 38.1363 61.3971C39.1552 62.2236 40.2162 62.7444 41.3192 62.9592C42.4324 63.1617 43.4925 63.0739 44.4996 62.696C45.5043 62.2955 46.3746 61.6417 47.1104 60.7346C48.1385 59.4672 48.6062 58.116 48.5135 56.681C48.4208 55.246 47.7837 53.9361 46.6023 52.7511L42.3991 57.9327L41.0199 56.8138L46.6897 49.8243L47.9944 50.8827C48.9824 51.8489 49.6918 52.9807 50.1228 54.278C50.5414 55.5653 50.6336 56.8865 50.3995 58.2418C50.153 59.587 49.5661 60.8312 48.6388 61.9744C47.6611 63.1797 46.4894 64.0526 45.1239 64.5931C43.7459 65.1235 42.3168 65.2724 40.8366 65.04C39.3664 64.7951 37.9977 64.1586 36.7302 63.1305C35.4628 62.1024 34.5577 60.8943 34.0148 59.5063C33.4697 58.0957 33.3207 56.6666 33.5679 55.219C33.8027 53.7612 34.4089 52.4297 35.3867 51.2244C36.5055 49.8452 37.835 48.9046 39.3752 48.4028C40.9255 47.8886 42.5185 47.8931 44.1542 48.4165L42.5061 50.4481Z" fill="black"/>
<path d="M49.9505 39.0385L53.5516 43.3166L58.2153 39.391L59.3745 40.7681L54.7108 44.6937L58.42 49.1004L63.6346 44.7111L64.7938 46.0882L57.9083 51.8839L47.1205 39.0678L54.0059 33.2721L55.1651 34.6492L49.9505 39.0385Z" fill="black"/>
<path d="M70.7612 22.4897L71.67 24.0156L67.7522 26.349L75.4033 39.1951L73.5269 40.3127L65.8758 27.4665L61.9374 29.8122L61.0287 28.2864L70.7612 22.4897Z" fill="black"/>
<path d="M99.5133 29.5582C98.4457 29.8392 97.4375 29.9059 96.4887 29.7585C95.5514 29.5915 94.7553 29.2385 94.1006 28.6993C93.4418 28.1447 92.9886 27.4285 92.741 26.5506L94.9924 25.9582C95.2693 26.696 95.7477 27.2567 96.4277 27.6403C97.1191 28.0043 97.9909 28.0479 99.0431 27.7711C100.049 27.5064 100.773 27.0512 101.215 26.4054C101.669 25.7401 101.792 25.0128 101.584 24.2237C101.421 23.6048 101.119 23.1467 100.676 22.8494C100.234 22.5521 99.7313 22.3701 99.1678 22.3033C98.6042 22.2365 97.8587 22.2011 96.9311 22.197C95.7901 22.1994 94.8581 22.1469 94.1349 22.0394C93.4272 21.9278 92.7639 21.6391 92.145 21.1732C91.5375 20.6878 91.1014 19.9423 90.8368 18.9365C90.6047 18.0545 90.6234 17.2141 90.893 16.4152C91.1626 15.6163 91.6508 14.9253 92.3577 14.3422C93.0801 13.7551 93.9674 13.3231 95.0195 13.0462C96.5359 12.6472 97.8735 12.7006 99.0324 13.2063C100.207 13.708 101.021 14.5692 101.474 15.79L99.1533 16.4007C98.913 15.8021 98.4456 15.3461 97.7509 15.0325C97.0522 14.7035 96.2309 14.6632 95.287 14.9115C94.405 15.1436 93.7466 15.565 93.3117 16.1758C92.8728 16.7711 92.7612 17.4788 92.977 18.2989C93.1317 18.8869 93.4204 19.3238 93.843 19.6097C94.2812 19.8914 94.7665 20.0698 95.2991 20.1447C95.8431 20.2001 96.5887 20.2356 97.5358 20.2511C98.6808 20.2641 99.617 20.3321 100.344 20.4551C101.067 20.5626 101.74 20.857 102.363 21.3384C102.982 21.8042 103.426 22.5477 103.695 23.569C103.903 24.3581 103.889 25.1558 103.655 25.962C103.42 26.7683 102.95 27.4959 102.244 28.1449C101.537 28.794 100.627 29.2651 99.5133 29.5582Z" fill="black"/>
<path d="M120.458 9.41334L120.61 11.1828L116.067 11.5734L117.348 26.4705L115.172 26.6576L113.891 11.7605L109.324 12.1532L109.171 10.3837L120.458 9.41334Z" fill="black"/>
<path d="M137.673 23.3665L130.409 22.6759L128.719 26.252L126.426 26.0339L134.021 10.0491L136.529 10.2876L140.952 27.4151L138.658 27.197L137.673 23.3665ZM137.219 21.5394L135.009 12.8431L131.199 20.967L137.219 21.5394Z" fill="black"/>
<path d="M155.22 31.2572L153.315 23.5741L150.781 22.8334L148.862 29.3987L146.766 28.7859L151.459 12.7298L156.642 14.2449C157.856 14.5995 158.816 15.1054 159.524 15.7625C160.248 16.424 160.714 17.1686 160.922 17.9962C161.13 18.8239 161.101 19.6907 160.837 20.5968C160.513 21.7026 159.906 22.5835 159.014 23.2396C158.137 23.9002 157.021 24.1824 155.666 24.0863L157.731 31.9912L155.22 31.2572ZM151.273 21.1518L154.36 22.0541C155.496 22.3863 156.429 22.359 157.159 21.9723C157.893 21.5701 158.397 20.9007 158.671 19.9639C158.95 19.0117 158.881 18.1915 158.465 17.5033C158.065 16.8195 157.289 16.3093 156.137 15.9726L153.05 15.0703L151.273 21.1518Z" fill="black"/>
<path d="M180.142 23.9723L179.36 25.5669L175.265 23.5592L168.682 36.9839L166.721 36.0224L173.304 22.5976L169.189 20.5793L169.971 18.9847L180.142 23.9723Z" fill="black"/>
<path d="M187.974 31.1065L184.732 35.6628L189.699 39.197L188.656 40.6636L183.689 37.1294L180.349 41.8226L185.903 45.7742L184.859 47.2408L177.526 42.0231L187.238 28.3737L194.572 33.5915L193.528 35.0581L187.974 31.1065Z" fill="black"/>
<path d="M205.758 43.7158C207.03 45.023 207.882 46.3923 208.316 47.8239C208.771 49.2557 208.792 50.6647 208.377 52.0508C207.973 53.4483 207.158 54.7441 205.931 55.9381C204.704 57.1321 203.387 57.9119 201.979 58.2774C200.593 58.6433 199.191 58.579 197.772 58.0845C196.376 57.5903 195.042 56.6896 193.77 55.3824L190.137 51.6501L202.126 39.9835L205.758 43.7158ZM195.06 54.127C196.566 55.675 198.122 56.4599 199.729 56.4817C201.347 56.4924 202.895 55.778 204.374 54.3385C205.865 52.8878 206.627 51.3424 206.661 49.7022C206.706 48.0735 205.98 46.4909 204.485 44.9544L202.376 42.7873L192.951 51.9599L195.06 54.127Z" fill="black"/>
<path d="M203.382 66.9777C203.139 66.6398 203.051 66.2699 203.116 65.868C203.182 65.4661 203.384 65.1438 203.722 64.9011C204.06 64.6584 204.43 64.5701 204.832 64.636C205.234 64.7019 205.556 64.9038 205.799 65.2417C206.032 65.5666 206.111 65.9235 206.036 66.3124C205.97 66.7143 205.768 67.0366 205.43 67.2793C205.092 67.522 204.722 67.6103 204.32 67.5444C203.928 67.4915 203.615 67.3026 203.382 66.9777Z" fill="black"/>
<path d="M229.017 91.3406C229.77 90.5652 230.24 89.673 230.428 88.664C230.631 87.6495 230.528 86.595 230.12 85.5004C229.713 84.4059 229.089 83.5112 228.25 82.8164C227.431 82.1311 226.455 81.7094 225.32 81.5514C224.206 81.4028 223.035 81.5575 221.805 82.0154C220.576 82.4733 219.588 83.1227 218.843 83.9637C218.103 84.8197 217.64 85.7775 217.454 86.837C217.289 87.9059 217.41 88.9877 217.818 90.0822C218.388 91.6116 219.314 92.7008 220.597 93.3497C221.88 93.9987 223.332 94.1153 224.953 93.6995L222.624 87.447L224.289 86.8272L227.43 95.2612L225.856 95.8476C224.521 96.2079 223.186 96.2442 221.85 95.9565C220.528 95.6633 219.343 95.0716 218.295 94.1816C217.261 93.286 216.487 92.1485 215.974 90.7691C215.432 89.3147 215.275 87.8621 215.503 86.4113C215.746 84.9549 216.344 83.6482 217.296 82.4911C218.253 81.3491 219.497 80.4933 221.026 79.9237C222.556 79.3541 224.056 79.188 225.527 79.4254C227.019 79.6723 228.326 80.2698 229.448 81.218C230.584 82.1606 231.423 83.3592 231.965 84.8136C232.585 86.4779 232.719 88.1009 232.369 89.6825C232.025 91.2791 231.212 92.649 229.93 93.7922L229.017 91.3406Z" fill="black"/>
<path d="M235.065 103.548L229.55 104.477L230.563 110.489L228.788 110.788L227.775 104.776L222.095 105.733L223.228 112.455L221.453 112.754L219.957 103.879L236.477 101.095L237.972 109.97L236.197 110.269L235.065 103.548Z" fill="black"/>
<path d="M238.75 129.88L236.974 129.888L236.954 125.328L222.002 125.394L221.992 123.21L236.944 123.144L236.924 118.56L238.7 118.552L238.75 129.88Z" fill="black"/>
<path d="M218.056 151.057C218.357 149.994 218.811 149.092 219.42 148.35C220.04 147.627 220.748 147.121 221.545 146.83C222.358 146.545 223.205 146.518 224.087 146.751L223.454 148.991C222.678 148.855 221.952 148.982 221.276 149.373C220.611 149.784 220.131 150.512 219.835 151.559C219.552 152.56 219.576 153.415 219.908 154.124C220.251 154.853 220.815 155.328 221.6 155.55C222.216 155.724 222.764 155.696 223.245 155.466C223.725 155.236 224.138 154.895 224.481 154.444C224.825 153.992 225.234 153.368 225.709 152.571C226.286 151.587 226.805 150.811 227.265 150.243C227.721 149.69 228.306 149.265 229.022 148.968C229.748 148.692 230.612 148.695 231.613 148.978C232.491 149.226 233.205 149.669 233.756 150.307C234.308 150.945 234.655 151.716 234.798 152.621C234.937 153.542 234.858 154.525 234.562 155.572C234.136 157.081 233.411 158.206 232.386 158.948C231.358 159.704 230.202 159.968 228.92 159.739L229.573 157.429C230.211 157.526 230.841 157.355 231.464 156.916C232.102 156.482 232.554 155.795 232.82 154.855C233.068 153.978 233.039 153.196 232.734 152.512C232.444 151.831 231.891 151.376 231.075 151.145C230.49 150.98 229.967 151.006 229.506 151.225C229.041 151.46 228.641 151.787 228.306 152.208C227.982 152.648 227.572 153.272 227.078 154.08C226.485 155.06 225.951 155.832 225.476 156.396C225.016 156.964 224.42 157.395 223.689 157.687C222.974 157.983 222.108 157.988 221.092 157.701C220.306 157.479 219.626 157.062 219.051 156.451C218.475 155.839 218.088 155.064 217.887 154.126C217.687 153.188 217.743 152.165 218.056 151.057Z" fill="black"/>
<path d="M224.772 179.33L223.17 178.562L225.141 174.45L211.658 167.987L212.602 166.018L226.085 172.481L228.067 168.347L229.668 169.115L224.772 179.33Z" fill="black"/>
<path d="M204.008 187.072L208.292 181.166L206.07 177.894L207.423 176.028L217.335 190.69L215.855 192.73L198.855 187.84L200.208 185.975L204.008 187.072ZM205.812 187.609L214.426 190.122L209.364 182.714L205.812 187.609Z" fill="black"/>
<path d="M188.299 198.179L195.884 200.441L197.809 198.634L193.129 193.646L194.721 192.152L206.168 204.35L202.231 208.045C201.309 208.91 200.385 209.481 199.46 209.757C198.522 210.044 197.644 210.067 196.826 209.826C196.007 209.585 195.275 209.12 194.629 208.432C193.84 207.592 193.39 206.621 193.278 205.52C193.154 204.429 193.478 203.324 194.249 202.206L186.391 199.969L188.299 198.179ZM199.008 199.912L196.663 202.112C195.8 202.923 195.349 203.74 195.312 204.565C195.285 205.402 195.606 206.176 196.274 206.888C196.953 207.611 197.694 207.969 198.498 207.961C199.29 207.963 200.124 207.554 200.999 206.733L203.344 204.532L199.008 199.912Z" fill="black"/>
<path d="M181.915 223.346L180.939 221.862L184.748 219.355L176.527 206.866L178.352 205.665L186.572 218.155L190.401 215.634L191.378 217.118L181.915 223.346Z" fill="black"/>
<path d="M171.792 226.47L169.513 221.363L163.946 223.846L163.213 222.203L168.78 219.719L166.433 214.459L160.209 217.236L159.475 215.592L167.695 211.925L174.519 227.224L166.3 230.89L165.567 229.247L171.792 226.47Z" fill="black"/>
<path d="M151.897 235.384C150.125 235.816 148.512 235.855 147.059 235.501C145.594 235.166 144.37 234.468 143.387 233.407C142.388 232.349 141.686 230.989 141.281 229.325C140.875 227.662 140.873 226.131 141.273 224.733C141.661 223.353 142.429 222.178 143.576 221.207C144.71 220.255 146.164 219.563 147.936 219.132L152.996 217.898L156.957 234.151L151.897 235.384ZM148.362 220.88C146.264 221.392 144.797 222.334 143.962 223.707C143.131 225.095 142.96 226.792 143.449 228.797C143.942 230.818 144.886 232.259 146.282 233.121C147.662 233.987 149.393 234.166 151.476 233.658L154.414 232.942L151.3 220.164L148.362 220.88Z" fill="black"/>
<path d="M133.066 221.521C133.48 221.484 133.844 221.596 134.157 221.857C134.469 222.118 134.644 222.455 134.682 222.869C134.719 223.284 134.607 223.647 134.347 223.96C134.086 224.273 133.748 224.448 133.334 224.485C132.935 224.521 132.588 224.408 132.291 224.146C131.978 223.885 131.803 223.547 131.766 223.133C131.728 222.719 131.84 222.355 132.101 222.042C132.346 221.731 132.668 221.557 133.066 221.521Z" fill="black"/>
</svg>
