<svg width="219" height="273" viewBox="0 0 219 273" fill="none" xmlns="http://www.w3.org/2000/svg">
<path d="M124.356 267.639C100.661 244.004 78.3696 218.599 60.6767 190.115C43.1131 161.834 29.631 131.083 20.8953 98.9672C15.9458 80.734 12.5661 62.0767 10.5345 43.3088C7.39486 44.1568 4.25525 45.0049 1.1156 45.8529C17.1278 70.6863 32.5491 95.8331 49.4294 120.113C66.088 144.08 83.7994 167.365 103.228 189.175C114.236 201.546 125.612 213.935 137.857 225.107C143.194 229.956 151.247 223.872 147.83 217.437C119.795 164.618 95.9886 109.642 76.8367 53.0061C71.37 36.8561 66.2911 20.5771 61.6001 4.20584C58.4974 6.01257 55.4131 7.80091 52.3104 9.60765C88.5457 53.2827 124.024 97.5845 160.056 141.444C170.232 153.815 180.39 166.204 190.566 178.574C194.666 183.57 203.143 178.206 201.259 172.361C186.817 127.58 171.747 82.9832 157.286 38.202C153.961 40.1377 150.637 42.0736 147.313 43.9909C175.33 66.4092 199.394 93.2152 218.62 123.358V101.198C200.724 76.6412 179.559 54.4995 155.753 35.5656C151.523 32.1918 143.748 35.1231 145.78 41.3545C160.351 86.0804 174.332 131.009 188.922 175.735C192.487 173.67 196.051 171.587 199.616 169.522C163.454 125.847 127.145 82.2826 90.8358 38.7366C80.5857 26.4398 70.3357 14.1245 60.1965 1.75386C56.5582 -2.68923 49.5031 2.12257 50.9067 7.15562C67.196 65.5058 88.1579 122.455 113.755 177.376C121.069 193.065 128.826 208.533 136.896 223.835C140.221 221.272 143.545 218.728 146.87 216.165C136.158 206.376 125.575 196.605 115.695 185.967C105.851 175.366 96.4317 164.378 87.3821 153.114C69.1721 130.456 52.4582 106.637 36.4829 82.3748C27.4333 68.6399 18.3837 54.8498 9.88816 40.7646C7.45031 36.7271 0.0629366 38.1098 0.469245 43.3088C5.82513 112.352 34.5438 179.09 78.5359 232.334C91.0391 247.47 104.927 260.725 120.663 272.451C123.507 274.571 126.794 270.036 124.393 267.639H124.356Z" fill="#52BF4F"/>
</svg>
