<svg width="30" height="25" viewBox="0 0 30 25" fill="none" xmlns="http://www.w3.org/2000/svg">
<path d="M26.8276 6.52294C26.8472 6.78703 26.8472 7.04961 26.8472 7.31219C26.8472 15.3481 20.7308 24.6079 9.55301 24.6079C6.10926 24.6079 2.90999 23.6104 0.217773 21.8779C0.706719 21.9338 1.17756 21.9534 1.68612 21.9534C4.52774 21.9534 7.14299 20.9936 9.23308 19.3562C6.56048 19.3004 4.32099 17.5499 3.54834 15.1414C3.9241 15.1972 4.30137 15.2349 4.69675 15.2349C5.24154 15.2349 5.78934 15.1595 6.2979 15.0282C3.51061 14.4638 1.42354 12.0175 1.42354 9.06274V8.98728C2.23392 9.4385 3.17408 9.7207 4.17008 9.75843C2.53272 8.66887 1.45976 6.80514 1.45976 4.69694C1.45976 3.56814 1.76006 2.5329 2.28674 1.63047C5.27926 5.31718 9.77786 7.72719 14.8212 7.99128C14.7277 7.53856 14.6703 7.06923 14.6703 6.59839C14.6703 3.24821 17.3807 0.519775 20.749 0.519775C22.4995 0.519775 24.0795 1.25319 25.1902 2.43934C26.5635 2.17525 27.8794 1.66668 29.0474 0.970994C28.5962 2.38199 27.6349 3.56814 26.3748 4.32118C27.5987 4.18838 28.7849 3.85034 29.8744 3.3795C29.0474 4.58376 28.0137 5.65672 26.8276 6.52294Z" fill="white"/>
</svg>
