<svg width="71" height="71" viewBox="0 0 71 71" fill="none" xmlns="http://www.w3.org/2000/svg">
<path d="M13.7988 48.9086C13.0981 57.3472 19.4635 64.2382 27.9312 64.2382H41.9176C51.4365 64.2382 57.9771 56.5588 56.4004 47.1567C54.736 37.2874 45.2171 29.1992 35.2018 29.1992C28.5444 29.1992 22.3542 32.5279 18.3539 37.5794" stroke="#292D32" stroke-width="2.86059" stroke-linecap="round" stroke-linejoin="round"/>
<path d="M31.4936 21.8994C35.5252 21.8994 38.7934 18.6311 38.7934 14.5996C38.7934 10.568 35.5252 7.2998 31.4936 7.2998C27.4621 7.2998 24.1938 10.568 24.1938 14.5996C24.1938 18.6311 27.4621 21.8994 31.4936 21.8994Z" stroke="#292D32" stroke-width="2.86059" stroke-linecap="round" stroke-linejoin="round"/>
<path d="M51.4367 25.4033C54.662 25.4033 57.2766 22.7887 57.2766 19.5635C57.2766 16.3382 54.662 13.7236 51.4367 13.7236C48.2115 13.7236 45.5969 16.3382 45.5969 19.5635C45.5969 22.7887 48.2115 25.4033 51.4367 25.4033Z" stroke="#292D32" stroke-width="2.86059" stroke-linecap="round" stroke-linejoin="round"/>
<path d="M62.2402 37.0827C64.6592 37.0827 66.6201 35.1218 66.6201 32.7029C66.6201 30.2839 64.6592 28.323 62.2402 28.323C59.8213 28.323 57.8604 30.2839 57.8604 32.7029C57.8604 35.1218 59.8213 37.0827 62.2402 37.0827Z" stroke="#292D32" stroke-width="2.86059" stroke-linecap="round" stroke-linejoin="round"/>
<path d="M12.5141 31.2431C15.7394 31.2431 18.354 28.6285 18.354 25.4033C18.354 22.1781 15.7394 19.5635 12.5141 19.5635C9.28889 19.5635 6.67432 22.1781 6.67432 25.4033C6.67432 28.6285 9.28889 31.2431 12.5141 31.2431Z" stroke="#292D32" stroke-width="2.86059" stroke-linecap="round" stroke-linejoin="round"/>
</svg>
